# xmcd
#
# Track frame offsets: 
#        150
#        20292
#        37270
#        59910
#        83722
#        103419
#        120174
#        152367
#        170723
#        197508
#
# Disc length: 2825 seconds
#
# Revision: 0
# Processed by: cddbd v1.5.2PL0 Copyright (c) Steve Scherf et al.
# Submitted via: ExactAudioCopy v0.95a4
#
DISCID=800b070a
DTITLE=Lionel Young - Beautiful Day
DYEAR=2008
DGENRE=Blues
TTITLE0=Oh What A Beautiful Day
TTITLE1=Blues and Boogie
TTITLE2=Devil In The Whitehouse
TTITLE3=Hope Is What We Got
TTITLE4=Showbiz
TTITLE5=Going To Have My Fun
TTITLE6=Summertime
TTITLE7=I Won't Be Back No More
TTITLE8=Fire On The Mountain
TTITLE9=Dark Was The Night
EXTD=
EXTT0=
EXTT1=
EXTT2=
EXTT3=
EXTT4=
EXTT5=
EXTT6=
EXTT7=
EXTT8=
EXTT9=
PLAYORDER=
